<?xml version="1.0" encoding="UTF-8" standalone="no"?>
<!DOCTYPE svg PUBLIC "-//W3C//DTD SVG 1.1//EN" "http://www.w3.org/Graphics/SVG/1.1/DTD/svg11.dtd">
<svg width="100%" height="100%" viewBox="0 0 685 230" version="1.1" xmlns="http://www.w3.org/2000/svg" xmlns:xlink="http://www.w3.org/1999/xlink" xml:space="preserve" xmlns:serif="http://www.serif.com/" style="fill-rule:evenodd;clip-rule:evenodd;stroke-linejoin:round;stroke-miterlimit:2;">
    <g id="Artboard1" transform="matrix(1,0,0,1,-49,-280)">
        <rect x="49" y="280" width="685" height="229.072" style="fill:none;"/>
        <clipPath id="_clip1">
            <rect x="49" y="280" width="685" height="229.072"/>
        </clipPath>
        <g clip-path="url(#_clip1)">
            <path d="M715.265,283.721C723.078,287.721 729.071,294.563 732.008,302.834L49,302.834L49,431.271L60.417,431.271L60.417,314.25L163.166,314.25L163.166,431.271L368.665,431.271L368.665,314.25L471.415,314.25L471.415,431.271L619.831,431.271L619.831,314.25L722.581,314.25L722.581,431.271L733.997,431.271L733.997,314.25C733.997,300.923 726.379,289.381 715.265,283.721ZM357.249,314.25L357.249,419.854L174.583,419.854L174.583,314.25L357.249,314.25ZM608.414,314.25L608.414,419.854L482.832,419.854L482.832,314.25L608.414,314.25Z" style="fill:rgb(191,155,81);fill-rule:nonzero;"/>
            <path d="M49,454.103L49,479.79C49,482.921 51.577,485.498 54.708,485.499L60.417,485.499L60.417,454.103L49,454.103ZM243.077,474.082C243.068,466.912 245.322,459.919 249.516,454.103L236.638,454.103C240.832,459.918 243.086,466.912 243.077,474.082ZM241.112,485.504L245.025,485.504C243.728,481.837 243.066,477.976 243.068,474.087C243.068,478.092 242.375,481.932 241.112,485.504ZM305.163,454.103C309.357,459.919 311.611,466.912 311.602,474.082C311.604,477.971 310.942,481.832 309.645,485.499L368.685,485.499L368.685,454.103L305.163,454.103ZM601.965,454.103C606.159,459.919 608.413,466.912 608.404,474.082C608.406,477.971 607.744,481.832 606.447,485.499L619.82,485.499L619.82,454.103L601.965,454.103ZM722.583,485.499L731.146,485.499C732.712,485.499 734,484.211 734,482.645C734,482.645 734,482.644 734,482.644L734,454.103L722.583,454.103L722.583,485.499ZM546.334,454.103L471.396,454.103L471.396,485.499L541.852,485.499C540.555,481.832 539.893,477.971 539.895,474.082C539.886,466.912 542.14,459.919 546.334,454.103ZM181.036,454.103L163.18,454.103L163.18,485.499L176.553,485.499C175.256,481.832 174.595,477.971 174.597,474.082C174.588,466.912 176.842,459.919 181.036,454.103Z" style="fill:rgb(191,155,81);fill-rule:nonzero;"/>
            <path d="M181.036,454.108C187.253,445.469 197.389,439.838 208.847,439.838C220.305,439.838 230.44,445.469 236.658,454.108L249.535,454.108C255.753,445.469 265.888,439.838 277.346,439.838C288.804,439.838 298.939,445.469 305.157,454.108L368.679,454.108L368.679,431.275L163.18,431.275L163.18,454.108L181.036,454.108Z" style="fill:rgb(225,189,114);fill-rule:nonzero;"/>
            <path d="M546.334,454.108C552.552,445.469 562.687,439.838 574.145,439.838C585.603,439.838 595.738,445.469 601.956,454.108L619.812,454.108L619.812,431.275L471.396,431.275L471.396,454.108L546.334,454.108Z" style="fill:rgb(225,187,114);fill-rule:nonzero;"/>
            <path d="M734,431.275L722.583,431.275L722.583,454.108L734,454.108L734,431.275ZM60.417,431.275L49,431.275L49,454.108L60.417,454.108L60.417,431.275Z" style="fill:rgb(225,189,114);fill-rule:nonzero;"/>
            <path d="M236.655,454.106C230.437,445.467 220.302,439.835 208.844,439.835C197.386,439.835 187.251,445.467 181.033,454.106C176.839,459.922 174.585,466.915 174.594,474.085C174.592,477.974 175.254,481.835 176.55,485.502C181.253,498.802 193.932,508.335 208.844,508.335C223.755,508.335 236.435,498.802 241.137,485.502C242.434,481.835 243.096,477.974 243.094,474.085C243.103,466.915 240.849,459.922 236.655,454.106ZM208.844,496.919C196.234,496.919 186.011,486.696 186.011,474.085C186.011,461.474 196.234,451.252 208.844,451.252C221.455,451.252 231.677,461.474 231.677,474.085C231.677,486.696 221.455,496.919 208.844,496.919Z" style="fill:rgb(105,90,105);fill-rule:nonzero;"/>
            <path d="M231.674,474.083C231.674,461.471 221.452,451.249 208.841,451.249C196.231,451.249 186.008,461.471 186.008,474.083C186.008,486.694 196.231,496.916 208.841,496.916C221.452,496.916 231.674,486.694 231.674,474.083ZM197.424,474.083C197.424,467.778 202.536,462.666 208.841,462.666C215.146,462.666 220.258,467.778 220.258,474.083C220.258,480.387 215.146,485.499 208.841,485.499C202.536,485.499 197.424,480.387 197.424,474.083Z" style="fill:rgb(223,208,198);fill-rule:nonzero;"/>
            <path d="M208.838,485.496C215.143,485.496 220.255,480.385 220.255,474.08C220.255,467.775 215.143,462.663 208.838,462.663C202.533,462.663 197.422,467.775 197.422,474.08C197.422,480.385 202.533,485.496 208.838,485.496Z" style="fill:rgb(200,178,168);fill-rule:nonzero;"/>
            <path d="M305.138,454.106C298.92,445.467 288.785,439.835 277.327,439.835C265.869,439.835 255.734,445.467 249.516,454.106C245.322,459.922 243.068,466.915 243.077,474.085C243.075,477.974 243.737,481.835 245.033,485.502C249.736,498.802 262.415,508.335 277.327,508.335C292.238,508.335 304.918,498.802 309.62,485.502C310.917,481.835 311.579,477.974 311.577,474.085C311.586,466.915 309.332,459.922 305.138,454.106ZM277.327,496.919C264.717,496.919 254.494,486.696 254.494,474.085C254.494,461.474 264.717,451.252 277.327,451.252C289.938,451.252 300.16,461.474 300.16,474.085C300.16,486.696 289.938,496.919 277.327,496.919Z" style="fill:rgb(105,90,105);fill-rule:nonzero;"/>
            <path d="M300.157,474.083C300.157,461.471 289.935,451.249 277.324,451.249C264.714,451.249 254.491,461.471 254.491,474.083C254.491,486.694 264.714,496.916 277.324,496.916C289.935,496.916 300.157,486.694 300.157,474.083ZM265.907,474.083C265.907,467.778 271.019,462.666 277.324,462.666C283.629,462.666 288.741,467.778 288.741,474.083C288.741,480.387 283.629,485.499 277.324,485.499C271.019,485.499 265.907,480.387 265.907,474.083Z" style="fill:rgb(223,208,198);fill-rule:nonzero;"/>
            <path d="M277.321,485.496C283.626,485.496 288.738,480.385 288.738,474.08C288.738,467.775 283.626,462.663 277.321,462.663C271.016,462.663 265.905,467.775 265.905,474.08C265.905,480.385 271.016,485.496 277.321,485.496Z" style="fill:rgb(200,178,168);fill-rule:nonzero;"/>
            <path d="M601.981,454.106C595.763,445.467 585.628,439.835 574.17,439.835C562.712,439.835 552.577,445.467 546.359,454.106C542.165,459.922 539.911,466.915 539.92,474.085C539.92,478.09 540.614,481.93 541.877,485.502C546.579,498.802 559.259,508.335 574.17,508.335C589.082,508.335 601.761,498.802 606.464,485.502C607.76,481.835 608.422,477.974 608.42,474.085C608.429,466.915 606.175,459.922 601.981,454.106ZM574.17,496.919C561.559,496.919 551.337,486.696 551.337,474.085C551.337,461.474 561.559,451.252 574.17,451.252C586.781,451.252 597.003,461.474 597.003,474.085C597.003,486.696 586.781,496.919 574.17,496.919Z" style="fill:rgb(105,90,105);fill-rule:nonzero;"/>
            <path d="M597.001,474.083C597.001,461.471 586.778,451.249 574.167,451.249C561.556,451.249 551.334,461.471 551.334,474.083C551.334,486.694 561.556,496.916 574.167,496.916C586.778,496.916 597.001,486.694 597.001,474.083ZM562.751,474.083C562.751,467.778 567.862,462.666 574.167,462.666C580.472,462.666 585.584,467.778 585.584,474.083C585.584,480.387 580.472,485.499 574.167,485.499C567.862,485.499 562.751,480.387 562.751,474.083Z" style="fill:rgb(223,208,198);fill-rule:nonzero;"/>
            <path d="M574.165,485.496C580.47,485.496 585.581,480.385 585.581,474.08C585.581,467.775 580.47,462.663 574.165,462.663C567.859,462.663 562.748,467.775 562.748,474.08C562.748,480.385 567.859,485.496 574.165,485.496Z" style="fill:rgb(200,178,168);fill-rule:nonzero;"/>
            <path d="M163.163,485.501L163.163,314.252L60.413,314.252L60.413,485.501L163.163,485.501ZM108.934,474.085L71.831,474.085L71.831,325.669L108.934,325.669L108.934,474.085ZM151.747,474.085L114.643,474.085L114.643,325.669L151.747,325.669L151.747,474.085ZM471.42,485.501L471.42,314.252L368.671,314.252L368.671,485.501L471.42,485.501ZM417.192,474.085L380.088,474.085L380.088,325.669L417.192,325.669L417.192,474.085ZM460.004,474.085L422.9,474.085L422.9,325.669L460.004,325.669L460.004,474.085ZM722.567,485.501L722.567,314.252L619.817,314.252L619.817,485.501L722.567,485.501ZM668.338,474.085L631.234,474.085L631.234,325.669L668.338,325.669L668.338,474.085ZM711.15,474.085L674.046,474.085L674.046,325.669L711.15,325.669L711.15,474.085Z" style="fill:rgb(130,110,119);fill-rule:nonzero;"/>
            <path d="M482.851,419.852L571.33,419.852L482.851,331.373L482.851,419.852ZM268.789,419.852L357.268,419.852L268.789,331.373L268.789,419.852ZM174.594,419.852L263.073,419.852L174.594,331.373L174.594,419.852ZM108.932,379.891L71.828,342.787L71.828,454.099L108.932,454.099L108.932,379.891ZM151.744,379.891L114.64,342.787L114.64,454.099L151.744,454.099L151.744,379.891ZM417.189,379.891L380.085,342.787L380.085,454.099L417.189,454.099L417.189,379.891ZM460.001,379.891L422.897,342.787L422.897,454.099L460.001,454.099L460.001,379.891ZM668.335,379.891L631.231,342.787L631.231,454.099L668.335,454.099L668.335,379.891ZM711.147,379.891L674.043,342.787L674.043,454.099L711.147,454.099L711.147,379.891Z" style="fill:rgb(149,255,255);fill-rule:nonzero;"/>
            <path d="M715.265,283.72L715.264,283.719C713.747,282.945 712.173,282.287 710.556,281.751C710.479,281.725 710.403,281.698 710.326,281.674C709.55,281.422 708.765,281.198 707.973,281.002C707.863,280.975 707.752,280.952 707.641,280.925C706.907,280.751 706.167,280.602 705.423,280.477C705.329,280.461 705.236,280.441 705.142,280.427C704.35,280.304 703.554,280.208 702.756,280.14C702.579,280.124 702.4,280.111 702.223,280.098C701.399,280.036 700.573,280.003 699.747,280L54.708,280C51.577,280.001 49.001,282.577 49,285.708L49,302.833L732.007,302.833C729.071,294.562 723.078,287.72 715.265,283.72Z" style="fill:rgb(225,189,114);fill-rule:nonzero;"/>
            <rect x="263.062" y="314.252" width="5.708" height="105.604" style="fill:rgb(130,110,119);fill-rule:nonzero;"/>
            <path d="M263.073,314.252L174.594,314.252L174.594,331.377L263.073,331.377L263.073,314.252ZM357.268,314.252L268.789,314.252L268.789,331.377L357.268,331.377L357.268,314.252ZM482.851,331.377L608.434,331.377L608.434,314.252L482.851,314.252L482.851,331.377ZM417.189,325.666L380.085,325.666L380.085,342.791L417.189,342.791L417.189,325.666ZM460.001,325.666L422.897,325.666L422.897,342.791L460.001,342.791L460.001,325.666ZM668.335,325.666L631.231,325.666L631.231,342.791L668.335,342.791L668.335,325.666ZM711.147,325.666L674.043,325.666L674.043,342.791L711.147,342.791L711.147,325.666ZM108.932,325.666L71.828,325.666L71.828,342.791L108.932,342.791L108.932,325.666ZM151.744,325.666L114.64,325.666L114.64,342.791L151.744,342.791L151.744,325.666Z" style="fill:rgb(110,177,226);fill-rule:nonzero;"/>
            <path d="M108.932,342.787L71.828,342.787L108.932,379.891L108.932,342.787ZM151.744,342.787L114.64,342.787L151.744,379.891L151.744,342.787ZM417.189,342.787L380.085,342.787L417.189,379.891L417.189,342.787ZM460.001,342.787L422.897,342.787L460.001,379.891L460.001,342.787ZM668.335,342.787L631.231,342.787L668.335,379.891L668.335,342.787ZM711.147,342.787L674.043,342.787L711.147,379.891L711.147,342.787ZM482.851,331.373L571.33,419.852L608.434,419.852L608.434,331.373L482.851,331.373ZM357.268,419.852L357.268,331.373L268.789,331.373L357.268,419.852ZM174.594,331.373L263.073,419.852L263.073,331.373L174.594,331.373ZM108.932,454.103L71.828,454.103L71.828,474.082L108.932,474.082L108.932,454.103ZM151.744,454.103L114.64,454.103L114.64,474.082L151.744,474.082L151.744,454.103ZM417.189,454.103L380.085,454.103L380.085,474.082L417.189,474.082L417.189,454.103ZM460.001,454.103L422.897,454.103L422.897,474.082L460.001,474.082L460.001,454.103ZM668.335,454.103L631.231,454.103L631.231,474.082L668.335,474.082L668.335,454.103ZM711.147,454.103L674.043,454.103L674.043,474.082L711.147,474.082L711.147,454.103Z" style="fill:rgb(128,215,240);fill-rule:nonzero;"/>
        </g>
    </g>
</svg>
