<svg width="45" height="45" viewBox="0 0 45 45" fill="none" xmlns="http://www.w3.org/2000/svg">
<path d="M3.04599 12.434C2.14737 12.6428 1.36763 13.1982 0.87655 13.9792C0.385468 14.7602 0.222811 15.7036 0.423993 16.604L3.07999 28.644V22.284L1.76299 16.295C1.6389 15.7478 1.7362 15.1736 2.03367 14.6978C2.33115 14.222 2.80467 13.8831 3.35099 13.755L3.64499 13.69C4.03099 12.97 4.59199 12.36 5.27799 11.917L3.04599 12.434ZM35.853 6.42001C36.399 6.30187 36.9695 6.40485 37.4397 6.70641C37.91 7.00796 38.2416 7.48352 38.362 8.02901L39.047 11.161H40.45L39.694 7.73801C39.5994 7.29101 39.4169 6.86727 39.1571 6.49144C38.8973 6.11561 38.5653 5.79518 38.1806 5.54878C37.7958 5.30238 37.3659 5.13493 36.9158 5.05618C36.4658 4.97742 36.0046 4.98892 35.559 5.09001L8.67999 11.161H14.889L35.853 6.42101V6.42001Z" fill="#FF854C"/>
<path d="M40.73 12.53H7.87299C6.96533 12.5303 6.09493 12.891 5.45321 13.533C4.81149 14.1749 4.45099 15.0454 4.45099 15.953V35.805C4.45099 36.7127 4.81149 37.5832 5.45321 38.2251C6.09493 38.867 6.96533 39.2278 7.87299 39.228H40.732C41.6398 39.228 42.5105 38.8674 43.1524 38.2255C43.7944 37.5835 44.155 36.7129 44.155 35.805V15.953C44.155 15.5033 44.0664 15.0581 43.8942 14.6426C43.7221 14.2272 43.4698 13.8498 43.1517 13.5319C42.8336 13.214 42.4561 12.9619 42.0405 12.79C41.625 12.6181 41.1797 12.5298 40.73 12.53ZM7.87299 13.9H40.732C41.866 13.9 42.785 14.819 42.785 15.953V16.98H5.81999V15.953C5.81999 14.819 6.73999 13.899 7.87299 13.899V13.9ZM40.732 37.858H7.87199C7.32758 37.8578 6.80555 37.6414 6.42059 37.2564C6.03564 36.8715 5.81925 36.3494 5.81899 35.805V18.349H42.784V35.805C42.784 36.939 41.865 37.858 40.731 37.858H40.732Z" fill="#FF854C"/>
<path d="M11.98 22.456H36.623C36.8047 22.456 36.9789 22.3838 37.1074 22.2554C37.2358 22.1269 37.308 21.9527 37.308 21.771C37.308 21.5893 37.2358 21.4151 37.1074 21.2866C36.9789 21.1582 36.8047 21.086 36.623 21.086H11.98C11.7983 21.086 11.6241 21.1582 11.4956 21.2866C11.3672 21.4151 11.295 21.5893 11.295 21.771C11.295 21.9527 11.3672 22.1269 11.4956 22.2554C11.6241 22.3838 11.7983 22.456 11.98 22.456ZM16.087 32.04H8.55699C8.4649 32.0365 8.37305 32.0516 8.28693 32.0844C8.20081 32.1172 8.1222 32.1671 8.0558 32.231C7.9894 32.2949 7.93658 32.3715 7.9005 32.4563C7.86442 32.5411 7.84583 32.6323 7.84583 32.7245C7.84583 32.8167 7.86442 32.9079 7.9005 32.9927C7.93658 33.0775 7.9894 33.1541 8.0558 33.218C8.1222 33.2819 8.20081 33.3318 8.28693 33.3646C8.37305 33.3974 8.4649 33.4125 8.55699 33.409H16.087C16.2687 33.409 16.4429 33.3368 16.5714 33.2084C16.6998 33.0799 16.772 32.9057 16.772 32.724C16.772 32.5423 16.6998 32.3681 16.5714 32.2396C16.4429 32.1112 16.2687 32.039 16.087 32.039V32.04ZM24.302 27.59C23.5885 27.578 22.8994 27.8495 22.3858 28.345C21.8723 28.8405 21.5764 29.5195 21.563 30.233C21.563 30.882 21.807 31.508 22.248 31.985L21.765 35.408C21.7476 35.5438 21.7592 35.6817 21.799 35.8126C21.8387 35.9436 21.9058 36.0646 21.9957 36.1678C22.0857 36.271 22.1965 36.3539 22.3208 36.4112C22.4451 36.4684 22.5801 36.4987 22.717 36.5H25.876C26.0155 36.4989 26.1531 36.4677 26.2795 36.4085C26.4058 36.3493 26.5179 36.2635 26.608 36.157C26.6963 36.055 26.7616 35.9353 26.7995 35.8059C26.8375 35.6765 26.8472 35.5405 26.828 35.407L26.355 31.985C26.7957 31.508 27.0403 30.8824 27.04 30.233C27.0266 29.5197 26.7308 28.8408 26.2175 28.3454C25.7042 27.8499 25.0153 27.5782 24.302 27.59ZM25.411 35.12H23.193L23.709 31.44L23.405 31.198C23.2586 31.0831 23.14 30.9367 23.0581 30.7696C22.9762 30.6025 22.9331 30.4191 22.932 30.233C22.9416 29.8762 23.0902 29.5372 23.3459 29.2883C23.6017 29.0393 23.9446 28.9 24.3015 28.9C24.6584 28.9 25.0013 29.0393 25.2571 29.2883C25.5128 29.5372 25.6614 29.8762 25.671 30.233C25.667 30.609 25.491 30.963 25.195 31.194L24.89 31.437L25.41 35.12H25.411Z" fill="#FF854C"/>
<path d="M40.046 22.771C40.5983 22.771 41.046 22.3233 41.046 21.771C41.046 21.2187 40.5983 20.771 40.046 20.771C39.4937 20.771 39.046 21.2187 39.046 21.771C39.046 22.3233 39.4937 22.771 40.046 22.771Z" fill="#FF854C"/>
<path d="M8.55701 22.771C9.10929 22.771 9.55701 22.3233 9.55701 21.771C9.55701 21.2187 9.10929 20.771 8.55701 20.771C8.00472 20.771 7.55701 21.2187 7.55701 21.771C7.55701 22.3233 8.00472 22.771 8.55701 22.771Z" fill="#FF854C"/>
<path d="M40.046 29.986H34.57C34.3883 29.986 34.2141 30.0582 34.0856 30.1866C33.9572 30.3151 33.885 30.4893 33.885 30.671V34.778C33.885 35.156 34.192 35.462 34.57 35.462H40.046C40.2275 35.462 40.4016 35.39 40.53 35.2617C40.6584 35.1335 40.7307 34.9595 40.731 34.778V30.67C40.731 30.4883 40.6588 30.3141 40.5303 30.1856C40.4019 30.0572 40.2277 29.985 40.046 29.985V29.986ZM39.362 34.093H35.254V31.355H39.362V34.093Z" fill="#FF854C"/>
</svg>
