<svg width="45" height="45" viewBox="0 0 45 45" fill="none" xmlns="http://www.w3.org/2000/svg">
<path d="M23.863 36.788C23.8117 36.7148 23.7538 36.6465 23.69 36.584C23.5312 36.4255 23.3359 36.3086 23.1212 36.2435C22.9065 36.1785 22.679 36.1673 22.459 36.211C22.369 36.227 22.281 36.253 22.197 36.287C22.114 36.321 22.037 36.364 21.964 36.415C21.7389 36.5651 21.5634 36.7787 21.4598 37.0287C21.3563 37.2787 21.3293 37.5538 21.3823 37.8192C21.4353 38.0845 21.566 38.3282 21.7577 38.5192C21.9494 38.7101 22.1935 38.8399 22.459 38.892C22.546 38.91 22.634 38.92 22.723 38.92C23.0827 38.9169 23.4268 38.7726 23.681 38.518C23.744 38.455 23.802 38.387 23.853 38.314C23.901 38.239 23.943 38.16 23.978 38.078C24.012 37.996 24.038 37.91 24.054 37.822C24.072 37.734 24.082 37.644 24.083 37.554C24.083 37.464 24.073 37.374 24.054 37.286C24.0376 37.1986 24.0122 37.1131 23.978 37.031C23.9463 36.947 23.9079 36.8657 23.863 36.788ZM22.197 10.184C22.282 10.217 22.369 10.242 22.459 10.261C22.546 10.279 22.634 10.289 22.723 10.289C23.0827 10.2859 23.4268 10.1416 23.681 9.88697C23.744 9.82397 23.802 9.75697 23.853 9.68297C23.901 9.60797 23.943 9.52897 23.978 9.44697C24.012 9.36497 24.038 9.27897 24.054 9.19097C24.072 9.10297 24.082 9.01297 24.083 8.92297C24.083 8.83297 24.073 8.74297 24.054 8.65497C24.0376 8.56755 24.0122 8.48209 23.978 8.39997C23.9427 8.31808 23.9009 8.23916 23.853 8.16397C23.802 8.09084 23.7445 8.02256 23.681 7.95997C23.5222 7.80116 23.3267 7.68395 23.1118 7.61872C22.8969 7.55348 22.6693 7.54223 22.449 7.58597C22.2716 7.61886 22.1031 7.68834 21.954 7.78997C21.7671 7.91476 21.6139 8.08372 21.508 8.28187C21.402 8.48003 21.3466 8.70126 21.3466 8.92597C21.3466 9.15067 21.402 9.37191 21.508 9.57007C21.6139 9.76822 21.7671 9.93718 21.954 10.062C22.031 10.111 22.112 10.152 22.197 10.184ZM36.191 24.16C36.289 24.312 36.419 24.442 36.571 24.54C36.645 24.589 36.723 24.632 36.804 24.667C36.889 24.7 36.977 24.725 37.066 24.744C37.153 24.762 37.242 24.772 37.331 24.772C37.6938 24.7712 38.0416 24.6267 38.2982 24.3701C38.5547 24.1136 38.6992 23.7658 38.7 23.403C38.7 23.313 38.69 23.223 38.671 23.135C38.6546 23.0476 38.6292 22.9621 38.595 22.88C38.5597 22.7981 38.5179 22.7192 38.47 22.644C38.3161 22.4233 38.1039 22.2498 37.857 22.143C37.5203 22.0065 37.1437 22.0065 36.807 22.143C36.7255 22.1779 36.6475 22.2205 36.574 22.27C36.4971 22.3175 36.4265 22.3746 36.364 22.44C36.238 22.5665 36.1373 22.7158 36.067 22.88C36.0346 22.9628 36.0089 23.0481 35.99 23.135C35.9717 23.2231 35.9623 23.3129 35.962 23.403C35.962 23.493 35.972 23.583 35.99 23.671C36.009 23.758 36.035 23.844 36.067 23.927C36.101 24.007 36.143 24.086 36.191 24.16ZM7.59301 22.136C7.51101 22.171 7.43301 22.214 7.36001 22.264C7.28277 22.3111 7.21186 22.3679 7.14901 22.433C6.89521 22.6873 6.75094 23.0307 6.74701 23.39C6.74701 23.48 6.75701 23.57 6.77601 23.659C6.79401 23.746 6.82001 23.831 6.85201 23.914C6.88801 23.996 6.93101 24.074 6.98001 24.15C7.09245 24.3179 7.24076 24.4588 7.41424 24.5625C7.58772 24.6662 7.78206 24.7302 7.98323 24.7497C8.1844 24.7692 8.3874 24.7438 8.57758 24.6754C8.76776 24.607 8.94039 24.4972 9.08301 24.354C9.14701 24.292 9.20401 24.224 9.25501 24.15C9.30301 24.075 9.34501 23.996 9.38001 23.914C9.46975 23.6867 9.49709 23.4396 9.45921 23.1983C9.42132 22.9569 9.31959 22.7301 9.16454 22.5413C9.0095 22.3525 8.80679 22.2086 8.57742 22.1245C8.34804 22.0404 8.10035 22.0191 7.86001 22.063C7.77001 22.08 7.68001 22.104 7.59301 22.136ZM16.526 15.868C16.3693 15.9745 16.2352 16.111 16.1315 16.2696C16.0278 16.4282 15.9565 16.6058 15.9217 16.7921C15.8869 16.9784 15.8894 17.1697 15.9289 17.355C15.9684 17.5404 16.0443 17.7161 16.152 17.872L21.259 25.322C21.5087 25.6553 21.8745 25.8828 22.2839 25.9595C22.6933 26.0362 23.1166 25.9564 23.47 25.736L27.954 22.66C28.1098 22.5535 28.243 22.4175 28.3462 22.2595C28.4493 22.1016 28.5204 21.9249 28.5552 21.7395C28.5901 21.5541 28.5881 21.3637 28.5494 21.179C28.5107 20.9944 28.4359 20.8192 28.3295 20.6635C28.2231 20.5077 28.087 20.3745 27.9291 20.2713C27.7711 20.1681 27.5944 20.0971 27.409 20.0622C27.2236 20.0274 27.0332 20.0294 26.8486 20.0681C26.6639 20.1068 26.4888 20.1815 26.333 20.288L22.896 22.64L18.511 16.241C18.2959 15.93 17.9668 15.7164 17.5952 15.6465C17.2235 15.5767 16.8393 15.6563 16.526 15.868Z" fill="#FF854C"/>
<path d="M23.588 0.289998C19.9986 0.10101 16.4165 0.780917 13.146 2.272C12.852 2.42132 12.6271 2.67861 12.5184 2.98999C12.4098 3.30138 12.4259 3.64272 12.5632 3.94254C12.7006 4.24236 12.9487 4.4774 13.2554 4.59846C13.5622 4.71952 13.9039 4.7172 14.209 4.592C23.139 0.506998 33.714 3.545 39.113 11.748C44.513 19.951 43.121 30.866 35.837 37.453C28.553 44.039 17.553 44.328 9.934 38.133C2.314 31.937 0.352004 21.11 5.314 12.635L5.448 13.13C5.48739 13.2966 5.55986 13.4535 5.66111 13.5915C5.76235 13.7295 5.8903 13.8457 6.03735 13.9333C6.1844 14.0209 6.34756 14.078 6.51712 14.1012C6.68668 14.1245 6.85919 14.1135 7.02439 14.0687C7.1896 14.024 7.34413 13.9465 7.4788 13.8409C7.61347 13.7353 7.72554 13.6037 7.80834 13.4539C7.89114 13.3041 7.94298 13.1392 7.96079 12.969C7.9786 12.7987 7.96201 12.6267 7.912 12.463L6.954 8.92C6.86509 8.59329 6.65007 8.31527 6.35622 8.14706C6.06237 7.97885 5.71375 7.93422 5.387 8.023L1.845 8.981C1.67845 9.02039 1.52151 9.09286 1.38351 9.1941C1.24552 9.29534 1.12928 9.42329 1.04171 9.57034C0.954146 9.7174 0.89703 9.88055 0.873763 10.0501C0.850496 10.2197 0.861551 10.3922 0.906271 10.5574C0.950992 10.7226 1.02847 10.8771 1.13409 11.0118C1.23971 11.1465 1.37133 11.2585 1.52112 11.3413C1.67091 11.4241 1.83581 11.476 2.00603 11.4938C2.17626 11.5116 2.34832 11.495 2.512 11.445L3.15 11.269C0.678609 15.4716 -0.35014 20.3673 0.22071 25.2091C0.791559 30.051 2.93066 34.5732 6.31167 38.0858C9.69267 41.5984 14.1299 43.9085 18.9465 44.6637C23.763 45.419 28.6944 44.5778 32.9883 42.2686C37.2821 39.9594 40.7027 36.3089 42.7281 31.8741C44.7534 27.4394 45.2725 22.4637 44.206 17.7064C43.1395 12.9491 40.546 8.67128 36.8211 5.52561C33.0963 2.37993 28.4447 0.539107 23.576 0.283998L23.588 0.289998Z" fill="#FF854C"/>
</svg>
