<svg width="71" height="23" viewBox="0 0 71 23" fill="none" xmlns="http://www.w3.org/2000/svg">
<path d="M36.7195 7.32344C36.679 10.5146 39.5659 12.2953 41.7405 13.3542C43.9748 14.4404 44.7253 15.1371 44.7164 16.1086C44.6998 17.5953 42.9342 18.2515 41.2821 18.277C38.3996 18.3216 36.7236 17.4994 35.3913 16.8776L34.3529 21.7322C35.6897 22.3477 38.165 22.8845 40.7318 22.908C46.7571 22.908 50.699 19.9363 50.7203 15.3288C50.7439 9.48129 42.6252 9.15762 42.6807 6.54394C42.6998 5.75141 43.4567 4.90567 45.1152 4.69064C45.9362 4.58201 48.2023 4.49888 50.7717 5.68102L51.7801 0.984034C50.3983 0.481358 48.6225 2.09808e-05 46.4115 2.09808e-05C40.7404 2.09808e-05 36.7517 3.01219 36.7195 7.32344ZM61.4699 0.404598C60.3697 0.404598 59.4425 1.04583 59.0287 2.02984L50.4219 22.563H56.4428L57.6409 19.2546H64.9983L65.6933 22.563H71L66.3692 0.404598H61.4699ZM62.3122 6.39042L64.0498 14.7112H59.2911L62.3122 6.39042ZM29.4195 0.404875L24.6736 22.5627H30.411L35.1547 0.404322H29.4195V0.404875ZM20.932 0.404322L14.9602 15.4865L12.5445 2.66276C12.2611 1.23121 11.1417 0.404598 9.89868 0.404598H0.13673L0 1.04804C2.00409 1.48255 4.28108 2.18336 5.66059 2.93321C6.50482 3.39127 6.74555 3.79169 7.0229 4.88018L11.5982 22.563H17.6612L26.9567 0.404598H20.932" fill="url(#paint0_linear)"/>
<defs>
<linearGradient id="paint0_linear" x1="32.6415" y1="23.3676" x2="33.3041" y2="-0.159328" gradientUnits="userSpaceOnUse">
<stop stop-color="#222357"/>
<stop offset="1" stop-color="#254AA5"/>
</linearGradient>
</defs>
</svg>
