<svg width="26" height="31" viewBox="0 0 26 31" fill="none" xmlns="http://www.w3.org/2000/svg">
<path d="M22.0555 2.41295C20.6403 0.782677 18.0822 0.0837402 14.8095 0.0837402H5.3114C4.98761 0.0837524 4.67443 0.200508 4.42819 0.413015C4.18195 0.625522 4.01878 0.919841 3.96804 1.24306L0.0131926 26.594C-0.0654168 27.0939 0.317575 27.5466 0.818888 27.5466H6.6827L8.15536 18.1058L8.10965 18.4015C8.21457 17.7341 8.77925 17.2419 9.44794 17.2419H12.2344C17.7084 17.2419 21.9947 14.9947 23.2467 8.49408C23.2839 8.30182 23.3161 8.11469 23.3439 7.93187C23.1859 7.84729 23.1859 7.84729 23.3439 7.93187C23.7168 5.52917 23.3414 3.89366 22.0555 2.41295Z" fill="#27346A"/>
<path d="M10.3991 7.06634C10.5594 6.98919 10.7347 6.94921 10.9123 6.94932H18.3586C19.2404 6.94932 20.0628 7.00731 20.8144 7.12957C21.0247 7.16346 21.2339 7.20392 21.4418 7.2509C21.7363 7.31659 22.0275 7.397 22.3142 7.49182C22.6837 7.61654 23.0278 7.76178 23.344 7.93187C23.7168 5.52824 23.3414 3.89366 22.0555 2.41295C20.6395 0.782677 18.0822 0.0837402 14.8095 0.0837402H5.31059C4.6418 0.0837402 4.07285 0.57584 3.96804 1.24306L0.0131931 26.5931C-0.0654162 27.0938 0.317576 27.5458 0.818076 27.5458H6.6827L9.73801 7.96349C9.76805 7.77101 9.84391 7.58879 9.95907 7.43251C10.0742 7.27623 10.2252 7.15057 10.3991 7.06634Z" fill="#27346A"/>
<path d="M23.2475 8.49409C21.9954 14.9938 17.7093 17.2419 12.2352 17.2419H9.4479C8.77921 17.2419 8.21442 17.7341 8.11053 18.4015L6.27844 30.1399C6.20999 30.5774 6.54474 30.9738 6.98267 30.9738H11.9257C12.2089 30.9737 12.4827 30.8716 12.698 30.6857C12.9133 30.4997 13.0558 30.2423 13.1001 29.9596L13.1482 29.7051L14.0799 23.7375L14.1399 23.4077C14.1841 23.125 14.3267 22.8676 14.542 22.6817C14.7572 22.4958 15.031 22.3936 15.3141 22.3935H16.0539C20.8423 22.3935 24.5917 20.4273 25.6873 14.741C26.1447 12.3647 25.908 10.3807 24.6982 8.98712C24.3313 8.56502 23.8756 8.21643 23.3447 7.93188C23.316 8.11563 23.2848 8.30183 23.2475 8.49409Z" fill="#2790C3"/>
<path d="M22.0344 7.40385C21.8392 7.34624 21.6421 7.29523 21.4435 7.25091C21.2356 7.2047 21.0264 7.16451 20.8162 7.1304C20.0638 7.00732 19.242 6.94922 18.3594 6.94922H10.9139C10.7363 6.94881 10.5608 6.98914 10.4007 7.06717C10.2267 7.15114 10.0755 7.27673 9.96032 7.43305C9.84512 7.58938 9.76935 7.77173 9.73958 7.96432L8.15703 18.1058L8.11133 18.4015C8.21543 17.7341 8.78012 17.2419 9.44891 17.2419H12.2362C17.7102 17.2419 21.9963 14.9947 23.2484 8.49409C23.2857 8.30183 23.317 8.11552 23.3457 7.93188C23.0286 7.76272 22.6854 7.61654 22.3159 7.49265C22.2226 7.4614 22.1288 7.4318 22.0345 7.40385" fill="#1F264F"/>
</svg>
