<svg width="42" height="42" viewBox="0 0 42 42" fill="none" xmlns="http://www.w3.org/2000/svg">
<path d="M3.43146 0H38.9661C40.4501 0.184094 41.7293 1.34731 41.7645 2.89767V8.66685C37.2054 8.58427 32.6446 8.65557 28.0847 8.62894C26.7491 8.59149 25.303 8.93351 24.396 9.98844C22.3345 12.2892 20.3374 14.6485 18.2794 16.9542C16.5879 17.0016 14.894 16.9141 13.202 16.9993C12.0437 17.0296 10.9414 17.5891 10.1861 18.4617C7.79602 21.1875 5.42671 23.9317 3.03936 26.657C2.11619 27.7048 1.24535 28.7994 0.235992 29.7672V2.81736C0.365039 2.16852 0.547327 1.50298 1.01253 1.00755C1.58782 0.278397 2.57191 0.127241 3.43146 0Z" fill="#2E3D91"/>
<path d="M26.856 14.1242C27.8148 13.081 29.3255 12.8852 30.6696 12.9421C34.3664 13.0129 38.0731 12.8333 41.764 13.0364V16.9484C36.0142 16.901 30.2631 16.9628 24.5142 16.9177C25.3228 16.0116 26.0452 15.0307 26.856 14.1242Z" fill="#2E3D91"/>
<path d="M13.9893 21.7862C14.806 21.2764 15.7878 21.1063 16.7408 21.1279C25.0819 21.1518 33.4238 21.1063 41.764 21.1491V25.2005C34.4517 25.1293 27.1398 25.2005 19.8271 25.1644C18.3764 25.132 16.8049 25.5232 15.8235 26.6625C14.8651 27.7386 13.9027 28.812 12.9348 29.8787C22.5434 29.9189 32.1541 29.8575 41.7645 29.9004V39.397C41.5361 40.6924 40.5349 41.8272 39.1957 42H2.53399C1.16772 41.6981 0.231008 40.4167 0.23552 39.0315V37.0732C3.91379 32.8779 7.59205 28.6798 11.2663 24.48C12.1177 23.5342 12.8947 22.4734 13.9893 21.7862Z" fill="#2E3D91"/>
</svg>
