<?xml version="1.0" encoding="UTF-8" standalone="no"?>
<!DOCTYPE svg PUBLIC "-//W3C//DTD SVG 1.1//EN" "http://www.w3.org/Graphics/SVG/1.1/DTD/svg11.dtd">
<svg width="100%" height="100%" viewBox="0 0 42 42" version="1.1" xmlns="http://www.w3.org/2000/svg" xmlns:xlink="http://www.w3.org/1999/xlink" xml:space="preserve" xmlns:serif="http://www.serif.com/" style="fill-rule:evenodd;clip-rule:evenodd;stroke-linejoin:round;stroke-miterlimit:2;">
    <path d="M3.431,0L38.966,0C40.45,0.184 41.729,1.347 41.765,2.898L41.765,8.667C37.205,8.584 32.645,8.656 28.085,8.629C26.749,8.591 25.303,8.934 24.396,9.988C22.334,12.289 20.337,14.649 18.279,16.954C16.588,17.002 14.894,16.914 13.202,16.999C12.044,17.03 10.941,17.589 10.186,18.462C7.796,21.188 5.427,23.932 3.039,26.657C2.116,27.705 1.245,28.799 0.236,29.767L0.236,2.817C0.365,2.169 0.547,1.503 1.013,1.008C1.588,0.278 2.572,0.127 3.431,0Z" style="fill:rgb(113,130,227);fill-rule:nonzero;"/>
    <path d="M26.856,14.124C27.815,13.081 29.326,12.885 30.67,12.942C34.366,13.013 38.073,12.833 41.764,13.036L41.764,16.948C36.014,16.901 30.263,16.963 24.514,16.918C25.323,16.012 26.045,15.031 26.856,14.124Z" style="fill:rgb(113,130,227);fill-rule:nonzero;"/>
    <path d="M13.989,21.786C14.806,21.276 15.788,21.106 16.741,21.128C25.082,21.152 33.424,21.106 41.764,21.149L41.764,25.201C34.452,25.129 27.14,25.201 19.827,25.164C18.376,25.132 16.805,25.523 15.823,26.663C14.865,27.739 13.903,28.812 12.935,29.879C22.543,29.919 32.154,29.858 41.765,29.9L41.765,39.397C41.536,40.692 40.535,41.827 39.196,42L2.534,42C1.168,41.698 0.231,40.417 0.236,39.032L0.236,37.073C3.914,32.878 7.592,28.68 11.266,24.48C12.118,23.534 12.895,22.473 13.989,21.786Z" style="fill:rgb(113,130,227);fill-rule:nonzero;"/>
</svg>
