<svg width="82" height="82" viewBox="0 0 82 82" fill="none" xmlns="http://www.w3.org/2000/svg">
<g clip-path="url(#clip0)">
<path opacity="0.1" d="M73 5.5H4C0.686291 5.5 -2 8.18629 -2 11.5V80.5C-2 83.8137 0.686291 86.5 4 86.5H73C76.3137 86.5 79 83.8137 79 80.5V11.5C79 8.18629 76.3137 5.5 73 5.5Z" fill="white" stroke="#FF854C"/>
<path d="M61.3461 72.5015H15.0723C13.1615 72.5015 11.5831 70.923 11.5831 69.0123V42.6769C11.5831 41.2646 12.4138 40.0184 13.66 39.52L19.8908 36.9446V22.8215C19.8908 20.9107 21.4692 19.3323 23.38 19.3323H53.0385C54.9492 19.3323 56.5277 20.9107 56.5277 22.8215V36.9446L63.2569 39.7692C64.1708 40.1846 64.8354 41.0984 64.8354 42.0954V69.0954C64.7523 70.923 63.2569 72.5015 61.3461 72.5015ZM13.3277 42.4277V42.6769V69.0123C13.3277 70.0092 14.1585 70.84 15.1554 70.84H61.3461C62.3431 70.84 63.1738 70.0092 63.1738 69.0123V42.4277L39.9954 56.883C38.9154 57.5477 37.42 57.5477 36.34 56.883L13.3277 42.4277ZM21.5523 45.6677L37.2538 55.4707C37.8354 55.803 38.5831 55.803 39.1646 55.4707L54.8661 45.6677V37.443V22.7384C54.8661 21.7415 54.0354 20.9107 53.0385 20.9107H23.38C22.3831 20.9107 21.5523 21.7415 21.5523 22.7384V37.36V45.6677ZM14.2415 41.0984L19.8908 44.6707V38.6892L14.3246 41.0154C14.3246 41.0154 14.3246 41.0984 14.2415 41.0984ZM56.4446 38.6892V44.6707L62.0938 41.0984L56.4446 38.6892ZM48.9677 40.9323H27.3677C26.8692 40.9323 26.5369 40.6 26.5369 40.1015C26.5369 39.603 26.8692 39.2707 27.3677 39.2707H48.9677C49.4661 39.2707 49.7985 39.603 49.7985 40.1015C49.7985 40.6 49.4661 40.9323 48.9677 40.9323ZM48.9677 34.2861H27.3677C26.8692 34.2861 26.5369 33.9538 26.5369 33.4554C26.5369 32.9569 26.8692 32.6246 27.3677 32.6246H48.9677C49.4661 32.6246 49.7985 32.9569 49.7985 33.4554C49.7985 33.9538 49.4661 34.2861 48.9677 34.2861ZM48.9677 27.64H41.4908C40.9923 27.64 40.66 27.3077 40.66 26.8092C40.66 26.3107 40.9923 25.9784 41.4908 25.9784H48.9677C49.4661 25.9784 49.7985 26.3107 49.7985 26.8092C49.7985 27.3077 49.4661 27.64 48.9677 27.64Z" fill="#FF854C"/>
</g>
<defs>
<clipPath id="clip0">
<rect width="82" height="82" fill="white"/>
</clipPath>
</defs>
</svg>
