<svg width="45" height="45" viewBox="0 0 45 45" fill="none" xmlns="http://www.w3.org/2000/svg">
<path d="M12.742 20.563C12.6793 20.5503 12.6158 20.5419 12.552 20.538C12.3925 20.5329 12.2342 20.5673 12.0911 20.6381C11.948 20.7088 11.8246 20.8138 11.7319 20.9437C11.6391 21.0735 11.5798 21.2243 11.5592 21.3826C11.5387 21.5408 11.5575 21.7018 11.614 21.851C11.6828 22.0299 11.8028 22.1845 11.9589 22.2957C12.115 22.4068 12.3005 22.4696 12.492 22.476C12.556 22.4793 12.6202 22.4746 12.683 22.462C12.9051 22.4264 13.1078 22.3146 13.2564 22.1457C13.405 21.9769 13.4901 21.7616 13.4972 21.5368C13.5043 21.312 13.4329 21.0917 13.2953 20.9138C13.1577 20.736 12.9624 20.6116 12.743 20.562L12.742 20.563ZM16.987 18.958C16.8622 18.9307 16.7335 18.9259 16.607 18.944C16.4497 18.972 16.3015 19.0375 16.1749 19.135C16.0484 19.2325 15.9472 19.3591 15.88 19.504C15.8275 19.6201 15.7985 19.7454 15.7946 19.8728C15.7907 20.0001 15.8121 20.127 15.8574 20.2461C15.9028 20.3651 15.9712 20.4741 16.0589 20.5666C16.1465 20.659 16.2516 20.7333 16.368 20.785C16.4831 20.8409 16.6091 20.8706 16.737 20.872C16.8007 20.8753 16.8645 20.8706 16.927 20.858C17.1309 20.8219 17.3179 20.7216 17.4608 20.5718C17.6037 20.422 17.695 20.2304 17.7215 20.0251C17.748 19.8197 17.7081 19.6113 17.6079 19.4302C17.5076 19.249 17.3521 19.1046 17.164 19.018C17.1076 18.991 17.0482 18.9708 16.987 18.958ZM20.61 19.181C20.7266 19.2324 20.8517 19.2615 20.979 19.267C21.1064 19.2713 21.2333 19.2496 21.352 19.203C21.5749 19.1162 21.7578 18.95 21.8656 18.7365C21.9734 18.523 21.9986 18.2772 21.9362 18.0463C21.8738 17.8153 21.7283 17.6156 21.5277 17.4854C21.327 17.3553 21.0853 17.3038 20.849 17.341C20.6918 17.3686 20.5437 17.4339 20.4173 17.5313C20.2909 17.6286 20.1899 17.7551 20.123 17.9C20.0705 18.016 20.0414 18.1413 20.0374 18.2686C20.0335 18.3959 20.0547 18.5228 20.1 18.6418C20.1453 18.7609 20.2136 18.8698 20.3012 18.9624C20.3887 19.0549 20.4936 19.1292 20.61 19.181Z" fill="#FF854C"/>
<path d="M21.94 8.184C21.8925 8.05894 21.8208 7.94446 21.7291 7.84712C21.6373 7.74977 21.5273 7.67146 21.4053 7.61667C21.2832 7.56188 21.1516 7.53167 21.0179 7.52778C20.8842 7.52389 20.751 7.54639 20.626 7.594V7.593L16.299 9.24C16.1622 9.29161 16.0382 9.3721 15.9353 9.47599C15.8325 9.57988 15.7532 9.70471 15.703 9.842C15.5408 10.2957 15.2826 10.709 14.9461 11.0538C14.6095 11.3986 14.2026 11.6668 13.753 11.84C13.3023 12.009 12.8205 12.0787 12.3404 12.0446C11.8603 12.0104 11.3932 11.8731 10.971 11.642C10.711 11.502 10.401 11.48 10.124 11.585L5.797 13.23C5.54498 13.3257 5.34127 13.5175 5.23064 13.7634C5.12001 14.0092 5.1115 14.2889 5.207 14.541L14.188 38.171C14.2352 38.2963 14.3066 38.4111 14.3983 38.5087C14.4899 38.6063 14.5999 38.6849 14.722 38.7399C14.8441 38.7949 14.9759 38.8253 15.1097 38.8292C15.2436 38.8332 15.3769 38.8107 15.502 38.763L19.829 37.115C20.105 37.01 20.322 36.791 20.423 36.513C20.5855 36.0592 20.844 35.6459 21.1808 35.3013C21.5177 34.9566 21.9251 34.6888 22.375 34.516C22.8257 34.347 23.3075 34.277 23.7877 34.3106C24.2679 34.3443 24.7352 34.4808 25.158 34.711C25.418 34.852 25.728 34.873 26.005 34.768L30.331 33.121C30.456 33.0741 30.5704 33.003 30.6678 32.9118C30.7652 32.8205 30.8435 32.7109 30.8983 32.5893C30.9532 32.4676 30.9834 32.3363 30.9873 32.2029C30.9912 32.0695 30.9687 31.9366 30.921 31.812L21.94 8.184ZM28.655 31.587L25.695 32.723C24.4129 32.1682 22.9653 32.1335 21.658 32.626C20.3502 33.1244 19.2883 34.1131 18.698 35.382L15.737 36.518L7.462 14.77L10.422 13.634C11.7037 14.1897 13.1513 14.2256 14.459 13.734C15.7679 13.2369 16.8303 12.2473 17.419 10.977L20.38 9.841L28.655 31.586V31.587ZM38.814 15.12C38.7689 14.8607 38.6229 14.6299 38.408 14.478L35.141 12.169C35.0243 12.0868 34.8913 12.0307 34.751 12.0045C34.6108 11.9783 34.4665 11.9826 34.328 12.017C33.9409 12.1174 33.5366 12.1323 33.1432 12.0606C32.7498 11.989 32.3768 11.8325 32.05 11.602C31.7235 11.3719 31.4512 11.0733 31.2522 10.7269C31.0532 10.3806 30.9323 9.99495 30.898 9.597C30.8843 9.45447 30.84 9.31656 30.7682 9.19266C30.6965 9.06876 30.5988 8.96178 30.482 8.879L27.214 6.575C27.0003 6.4228 26.7351 6.36125 26.4762 6.40377C26.2173 6.4463 25.9858 6.58944 25.832 6.802L23.985 9.315L24.832 11.542L26.882 8.759L28.995 10.249C29.2265 11.4479 29.9128 12.5107 30.9102 13.2151C31.9076 13.9195 33.1387 14.2108 34.346 14.028L36.455 15.518L29.892 24.834L30.743 27.072L38.653 15.848C38.797 15.635 38.855 15.375 38.813 15.121L38.814 15.12Z" fill="#FF854C"/>
<path d="M26.783 3.60002L25.945 1.32702C25.9101 1.24175 25.8435 1.17334 25.7592 1.13616C25.6749 1.09899 25.5794 1.09594 25.4929 1.12767C25.4064 1.15939 25.3356 1.22342 25.2953 1.30628C25.2551 1.38915 25.2485 1.48441 25.277 1.57202L25.837 3.08802C24.039 2.01902 22.445 1.63102 21.097 1.63202C19.8041 1.6282 18.5375 1.99728 17.449 2.69502C16.618 3.22702 16.182 3.75702 16.165 3.77702C16.1053 3.85009 16.0771 3.94387 16.0866 4.03773C16.096 4.13159 16.1424 4.21785 16.2155 4.27752C16.2885 4.33719 16.3823 4.3654 16.4762 4.35593C16.5701 4.34646 16.6563 4.30009 16.716 4.22702L16.718 4.22402C16.75 4.18502 17.16 3.70902 17.903 3.24802C18.8613 2.65186 19.9683 2.33786 21.097 2.34202C22.312 2.34202 23.776 2.68702 25.487 3.70602L23.997 4.26602C23.9533 4.28257 23.9133 4.30755 23.8793 4.33955C23.8453 4.37155 23.8179 4.40993 23.7988 4.4525C23.7796 4.49508 23.769 4.54101 23.7676 4.58769C23.7662 4.63436 23.7739 4.68086 23.7905 4.72452C23.807 4.76819 23.832 4.80816 23.864 4.84217C23.896 4.87618 23.9344 4.90355 23.977 4.92273C24.0195 4.9419 24.0655 4.95251 24.1121 4.95393C24.1588 4.95535 24.2053 4.94757 24.249 4.93102L26.575 4.05502C26.6627 4.02199 26.7338 3.95562 26.7727 3.87039C26.8117 3.78515 26.8154 3.68796 26.783 3.60002ZM16.817 40.769L17.656 43.043C17.6921 43.1266 17.7589 43.1931 17.8426 43.2289C17.9263 43.2647 18.0205 43.2671 18.1059 43.2356C18.1913 43.2041 18.2614 43.1411 18.3017 43.0595C18.3421 42.978 18.3497 42.884 18.323 42.797L17.764 41.281C19.561 42.35 21.155 42.738 22.504 42.737C23.7969 42.7408 25.0635 42.3718 26.152 41.674C26.983 41.142 27.419 40.612 27.436 40.592C27.4955 40.519 27.5236 40.4252 27.514 40.3315C27.5045 40.2377 27.458 40.1516 27.385 40.092C27.3488 40.0625 27.3072 40.0405 27.2625 40.0271C27.2178 40.0137 27.1708 40.0092 27.1244 40.014C27.0307 40.0235 26.9445 40.07 26.885 40.143L26.883 40.145C26.85 40.184 26.44 40.66 25.697 41.121C24.739 41.7174 23.6324 42.0317 22.504 42.028C21.289 42.028 19.824 41.682 18.114 40.663L19.603 40.103C19.6466 40.0865 19.6866 40.0616 19.7207 40.0297C19.7547 39.9977 19.7821 39.9594 19.8013 39.9169C19.8206 39.8744 19.8312 39.8285 19.8327 39.7818C19.8342 39.7352 19.8265 39.6887 19.81 39.645C19.7935 39.6014 19.7686 39.5614 19.7366 39.5273C19.7047 39.4933 19.6664 39.4659 19.6239 39.4467C19.5813 39.4274 19.5354 39.4168 19.4888 39.4153C19.4421 39.4138 19.3956 39.4215 19.352 39.438L17.025 40.315C16.9375 40.348 16.8666 40.4143 16.8277 40.4993C16.7887 40.5843 16.7849 40.6812 16.817 40.769Z" fill="#FF854C" stroke="#FF854C" stroke-width="0.5"/>
</svg>
