<svg width="45" height="45" viewBox="0 0 45 45" fill="none" xmlns="http://www.w3.org/2000/svg">
<g clip-path="url(#clip0)">
<path d="M19.615 18C18.805 16.096 18.105 14.452 18.565 11.71C19.399 6.73898 28.042 1.11399 37.501 1.59499L37.58 0.029985C27.163 -0.490015 17.967 5.73998 17.008 11.452C16.473 14.643 17.332 16.659 18.162 18.61C18.788 20.08 19.436 21.599 19.541 23.74C19.708 27.105 9.483 32.493 3 35.098L3.591 36.549C5.414 35.818 21.391 29.235 21.118 23.663C20.998 21.244 20.264 19.52 19.615 17.999V18ZM42.603 28.96C42.277 24.615 39.985 20.43 36.8 18.298C31.23 14.569 30.791 12.583 31.968 10.587C34.676 5.99198 41.681 5.92499 41.681 5.92499V4.35899C41.681 4.35899 33.776 4.42098 30.608 9.79598C28.276 13.753 31.859 16.846 35.97 19.598C38.769 21.471 40.765 25.191 41.057 29.076C41.315 32.516 40.417 37.716 34.671 42.948L35.736 44.103C41.947 38.447 42.888 32.746 42.603 28.959V28.96Z" fill="#FF854C" stroke="#FF854C" stroke-width="0.5"/>
<path d="M20.234 39.86C20.241 39.858 20.946 39.685 21.934 39.232L22.594 40.654C21.454 41.177 20.636 41.374 20.601 41.383L20.235 39.86H20.234ZM25.47 18.82L26.843 18.052C27.502 19.209 28.193 20.457 28.781 21.856L27.326 22.459C26.772 21.139 26.104 19.938 25.47 18.821V18.82ZM24.955 10.983C24.7264 11.4801 24.608 12.0208 24.608 12.568C24.608 13.139 24.734 13.755 24.993 14.451L23.513 14.994C23.189 14.121 23.031 13.328 23.031 12.568C23.031 11.798 23.189 11.072 23.516 10.346L24.956 10.983H24.955ZM25.21 37.071C26.1686 36.1906 26.9547 35.1394 27.528 33.971L28.947 34.653C28.2892 35.996 27.3864 37.2043 26.285 38.216L25.21 37.071ZM30.004 26.029C30.1519 26.9355 30.2265 27.8524 30.227 28.771C30.227 29.322 30.198 29.867 30.143 30.395L28.574 30.231C28.624 29.759 28.649 29.267 28.649 28.771C28.6485 27.9362 28.581 27.1029 28.447 26.279L30.004 26.029ZM28.086 5.67096L28.969 6.96796C28.405 7.34696 27.889 7.72496 27.438 8.08896L26.443 6.87496C26.931 6.47996 27.483 6.07496 28.086 5.67096Z" fill="#FF854C" stroke="#FF854C" stroke-width="0.2"/>
</g>
<defs>
<clipPath id="clip0">
<rect width="45" height="45" fill="white"/>
</clipPath>
</defs>
</svg>
