<svg width="18" height="18" viewBox="0 0 18 18" fill="none" xmlns="http://www.w3.org/2000/svg">
<path d="M15.2095 12.2603C15.0734 12.2003 14.938 12.1545 14.8055 12.1203C14.8646 11.8553 14.9144 11.5772 14.9558 11.288C15.0293 10.7762 15.0097 10.2516 14.9004 9.73902L13.9637 5.34765C13.8015 4.77084 13.4792 4.32172 13.0299 3.97663C13.2965 3.63688 13.4051 3.1745 13.2666 2.72021L12.9852 1.03384L12.9486 0.896309C12.749 0.358699 12.2374 0 11.6642 0H6.33767C5.76497 0 5.25401 0.357926 5.05323 0.894375L4.56597 2.70773C4.38759 3.18375 4.52818 3.70223 4.86072 4.05858C4.47073 4.38448 4.19061 4.7937 4.04759 5.30037L3.09844 9.73877C2.98914 10.2516 2.96949 10.7762 3.04304 11.2882C3.08448 11.5776 3.13434 11.8558 3.19343 12.1209C3.06181 12.1551 2.92744 12.2006 2.7923 12.2601C1.99977 12.6094 1.50098 13.3317 1.50098 14.3809C1.52499 14.8907 1.67975 15.5442 2.08594 16.2071C2.76878 17.3216 3.94268 17.9973 5.61746 17.9996C5.62016 17.9996 5.6228 18 5.62554 18H12.3755C12.3775 18 12.3794 17.9997 12.3813 17.9997C14.0574 17.9982 15.2322 17.3224 15.9156 16.2073C16.3218 15.5444 16.4767 14.891 16.4999 14.4178C16.5008 13.3318 16.0021 12.6095 15.2095 12.2603ZM6.44018 1.50001H11.5422L11.7925 3.00002H9.41444C9.32918 2.9989 9.24541 2.9989 9.16356 3.00002H6.03733L6.44018 1.50001ZM4.56544 10.0517L5.50288 5.66068C5.62192 5.24464 6.15067 4.89368 7.02423 4.68615C7.38902 4.59949 7.78593 4.54525 8.19142 4.51849C8.36471 4.50707 8.52548 4.50144 8.66874 4.5H8.80546C8.8428 4.50035 8.87911 4.50088 8.91318 4.50179C8.95881 4.50323 8.95881 4.50323 8.96236 4.50345C9.03999 4.50323 9.03999 4.50323 9.08562 4.50179C9.11969 4.50088 9.15604 4.50035 9.19334 4.5H9.32996C9.47329 4.50144 9.63416 4.50707 9.80752 4.51849C10.2131 4.54525 10.6101 4.59953 10.975 4.68622C11.8486 4.89382 12.3775 5.24482 12.5084 5.70807L13.4334 10.0518C13.5062 10.3933 13.5191 10.7399 13.471 11.075C13.2825 12.3912 12.865 13.3133 12.3384 13.4744C12.3331 13.4758 12.3279 13.4776 12.3225 13.4789C12.3212 13.4793 12.3197 13.4796 12.3184 13.48C12.3045 13.4832 12.2904 13.4857 12.2763 13.488C12.0638 13.4123 11.7711 13.3213 11.4135 13.2312C10.6348 13.035 9.81905 12.9171 8.99942 12.9171C8.18014 12.9171 7.36448 13.035 6.58563 13.2312C6.23304 13.32 5.94385 13.4096 5.73203 13.4847C5.7289 13.4858 5.72546 13.487 5.72236 13.488C5.709 13.4859 5.69568 13.4835 5.68257 13.4805C5.68067 13.48 5.67873 13.4796 5.6768 13.479C5.67107 13.4776 5.66548 13.4757 5.65979 13.4742C5.13346 13.3125 4.71626 12.3907 4.52779 11.0752C4.47966 10.7398 4.49267 10.3932 4.56544 10.0517ZM3.365 15.4235C3.21748 15.1827 3.11567 14.9197 3.05327 14.6564C3.01684 14.5026 3.00236 14.3906 3.00011 14.3443C3.00099 13.9424 3.13504 13.7483 3.3972 13.6328C3.46108 13.6046 3.52847 13.5834 3.59478 13.5681C3.72774 13.7788 3.87624 13.9667 4.0408 14.1301C4.274 14.4266 4.55008 14.6557 4.87556 14.8042V16.4327C4.15823 16.2926 3.68031 15.9382 3.365 15.4235ZM6.37599 16.5V14.8513C6.37662 14.8511 6.37725 14.8508 6.37789 14.8506C6.41828 14.8375 6.45987 14.8243 6.50248 14.8112C6.50624 14.8101 6.50997 14.8089 6.51373 14.8077C6.55645 14.7947 6.60021 14.7816 6.64504 14.7687C6.64824 14.7678 6.65151 14.7668 6.65471 14.7659C6.74931 14.7387 6.84838 14.7119 6.95167 14.6859C7.6188 14.5179 8.31524 14.4172 8.99973 14.4172C9.68391 14.4172 10.3801 14.5178 11.0471 14.6859C11.2052 14.7257 11.3536 14.7674 11.4908 14.8095C11.4916 14.8097 11.4923 14.81 11.493 14.8102C11.5384 14.8241 11.5825 14.8381 11.6253 14.852C11.6254 14.852 11.6254 14.8521 11.6255 14.8521V16.5H6.37599V16.5ZM14.9485 14.6563C14.8861 14.9197 14.7842 15.1827 14.6367 15.4235C14.3212 15.9383 13.8432 16.2927 13.1259 16.4329V14.803C13.4433 14.6577 13.7136 14.4355 13.9429 14.1491C14.1148 13.9815 14.2693 13.7873 14.4073 13.5683C14.4736 13.5836 14.5409 13.6048 14.6047 13.6329C14.8669 13.7484 15.0009 13.9426 15.0009 14.3811C14.9995 14.3905 14.9849 14.5026 14.9485 14.6563Z" fill="#FF854C"/>
</svg>
