<svg width="40" height="40" viewBox="0 0 40 40" fill="none" xmlns="http://www.w3.org/2000/svg">
<g clip-path="url(#clip0)">
<path d="M34.1421 34.1422C37.9196 30.3646 40 25.3422 40 20C40 14.6578 37.9196 9.63536 34.1421 5.85789C30.3646 2.08042 25.3422 -6.40715e-07 20 -8.7423e-07C14.6578 -1.10774e-06 9.63535 2.08033 5.8578 5.85789C2.08025 9.63544 -9.21934e-05 14.6578 -9.2427e-05 20C-9.26605e-05 25.3422 2.08024 30.3647 5.8578 34.1422C9.63527 37.9197 14.6578 40.0001 20 40.0001C25.3421 40.0001 30.3646 37.9197 34.1421 34.1422ZM1.5963 20C1.5963 9.85219 9.85219 1.5963 20 1.5963C30.1477 1.5963 38.4037 9.85219 38.4037 20C38.4037 30.1478 30.1478 38.4037 20 38.4037C9.85227 38.4037 1.5963 30.1479 1.5963 20Z" fill="#8D8D8D"/>
<path d="M36.6187 19.9999C36.6187 10.8364 29.1637 3.3814 20.0001 3.3814C10.8365 3.3814 3.38147 10.8364 3.38147 19.9999C3.38147 29.1635 10.8365 36.6186 20.0001 36.6186C29.1637 36.6186 36.6187 29.1635 36.6187 19.9999ZM8.13605 21.9787L8.13605 18.0198C13.1318 16.5237 17.1675 12.7355 18.9688 7.83676L24.7767 9.20497C25.6317 12.7185 26.0662 16.3475 26.0662 20.0002C26.0662 23.6541 25.6315 27.2828 24.7758 30.7951L18.9693 32.163C17.1684 27.2636 13.1326 23.4749 8.13605 21.9787ZM20.0001 4.9777C21.271 4.9777 22.5054 5.13698 23.6849 5.43557C23.9102 6.10345 24.1205 6.77877 24.3145 7.45613L19.4467 6.30937C19.5604 5.87349 19.6573 5.43061 19.7359 4.98107C19.8239 4.97956 19.9118 4.9777 20.0001 4.9777ZM19.447 33.6906L24.314 32.544C24.1201 33.222 23.9098 33.8973 23.6844 34.5646C22.5051 34.863 21.2708 35.0223 20.0001 35.0223C19.9119 35.0223 19.824 35.0204 19.7361 35.0189C19.6575 34.5694 19.5607 34.1265 19.447 33.6906ZM35.0224 19.9999C35.0224 26.3204 31.0985 31.7412 25.559 33.9556C25.7953 33.1931 26.0124 32.4244 26.2071 31.6572C27.1727 27.8717 27.6623 23.9497 27.6623 20.0002C27.6623 16.0523 27.173 12.1301 26.2081 8.34279C26.013 7.57603 25.7957 6.80741 25.5592 6.04438C31.0986 8.2589 35.0224 13.6796 35.0224 19.9999ZM18.09 5.09858C16.8181 11.3822 11.6424 16.1902 5.27912 16.9994C6.54897 10.7598 11.6986 5.91322 18.09 5.09858ZM5.04073 18.6325C5.54712 18.5818 6.0472 18.5086 6.53975 18.4133L6.53975 21.5854C6.0472 21.49 5.54703 21.4169 5.04056 21.3662C4.99976 20.916 4.97777 20.4607 4.97777 20C4.97786 19.539 4.99985 19.083 5.04073 18.6325ZM5.27885 22.9992C11.6433 23.8085 16.8191 28.617 18.0902 34.9015C11.6983 34.0869 6.54835 29.2396 5.27885 22.9992Z" fill="#8D8D8D"/>
<path d="M24.5386 20.0001C24.5386 17.4974 22.5025 15.4613 19.9998 15.4613C17.4971 15.4613 15.461 17.4974 15.461 20.0001C15.461 22.5028 17.4971 24.5389 19.9998 24.5389C22.5025 24.5389 24.5386 22.5028 24.5386 20.0001ZM17.0574 20.0001C17.0574 18.3776 18.3774 17.0576 19.9999 17.0576C21.6224 17.0576 22.9424 18.3776 22.9424 20.0001C22.9424 21.6225 21.6224 22.9426 19.9999 22.9426C18.3774 22.9426 17.0574 21.6226 17.0574 20.0001Z" fill="#8D8D8D"/>
</g>
<defs>
<clipPath id="clip0">
<rect width="40" height="40" fill="white" transform="translate(40) rotate(90)"/>
</clipPath>
</defs>
</svg>
