<svg width="143" height="143" viewBox="0 0 143 143" fill="none" xmlns="http://www.w3.org/2000/svg">
<path d="M71.4999 7.94444C58.9298 7.94444 46.642 11.6719 36.1903 18.6555C25.7387 25.6391 17.5926 35.5651 12.7822 47.1783C7.97187 58.7916 6.71326 71.5705 9.16557 83.8991C11.6179 96.2276 17.671 107.552 26.5594 116.441C35.4478 125.329 46.7723 131.382 59.1009 133.834C71.4294 136.287 84.2083 135.028 95.8216 130.218C107.435 125.407 117.361 117.261 124.344 106.81C131.328 96.3579 135.055 84.0701 135.055 71.5C135.055 54.644 128.359 38.4784 116.44 26.5594C104.522 14.6405 88.3559 7.94444 71.4999 7.94444ZM71.4999 127.111C60.5011 127.111 49.7492 123.85 40.604 117.739C31.4588 111.628 24.331 102.943 20.122 92.7815C15.9129 82.6199 14.8116 71.4383 16.9574 60.6508C19.1031 49.8633 24.3996 39.9544 32.1769 32.177C39.9543 24.3997 49.8632 19.1032 60.6507 16.9574C71.4382 14.8117 82.6198 15.913 92.7814 20.122C102.943 24.3311 111.628 31.4589 117.739 40.6041C123.85 49.7493 127.111 60.5012 127.111 71.5C127.111 86.249 121.252 100.394 110.823 110.823C100.394 121.252 86.2489 127.111 71.4999 127.111Z" fill="#50B448"/>
<path d="M111.226 48.0639C110.481 47.324 109.475 46.9088 108.425 46.9088C107.376 46.9088 106.369 47.324 105.625 48.0639L61.5332 91.9569L37.6999 68.1236C36.973 67.3387 35.9641 66.8748 34.8951 66.8338C33.8261 66.7929 32.7846 67.1782 31.9998 67.9051C31.2149 68.632 30.751 69.641 30.71 70.71C30.669 71.7789 31.0544 72.8204 31.7813 73.6053L61.5332 103.278L111.226 53.7044C111.598 53.3352 111.894 52.8958 112.095 52.4118C112.297 51.9277 112.401 51.4085 112.401 50.8842C112.401 50.3598 112.297 49.8406 112.095 49.3565C111.894 48.8725 111.598 48.4331 111.226 48.0639Z" fill="#50B448"/>
</svg>
